<svg width="23" height="24" viewBox="0 0 23 24" fill="none" xmlns="http://www.w3.org/2000/svg">
<path d="M22.0879 20.4292C22.147 18.9851 22.2557 13.9789 21.7704 12.2672L20.0851 6.32305C19.858 5.52209 18.9924 5.04279 18.1556 5.2547C17.319 5.46654 16.8229 6.29065 17.05 7.09161L17.7686 9.62621C17.8109 9.77517 17.7171 9.92865 17.5596 9.96854C17.402 10.0085 17.2396 9.91982 17.1974 9.77087L16.0744 5.80988C15.8473 5.00915 14.9816 4.52997 14.1447 4.7419C13.3079 4.95378 12.8119 5.77779 13.039 6.57852L13.8396 9.40245C13.8819 9.55141 13.788 9.70483 13.6305 9.7447C13.473 9.78459 13.3107 9.69596 13.2685 9.54708L12.1455 5.58648C11.9185 4.78583 11.053 4.30692 10.2162 4.51883C9.37954 4.73069 8.88345 5.55439 9.11046 6.35504L9.91132 9.17967C9.95349 9.32839 9.8596 9.48207 9.70215 9.52194C9.54454 9.56185 9.38217 9.47307 9.34 9.32434L7.03422 1.19189C6.80723 0.390981 5.94154 -0.0879616 5.10464 0.123963C4.26782 0.335867 3.77159 1.15969 3.99866 1.96057L7.56907 14.5534C7.60083 14.6654 7.55526 14.7857 7.45542 14.8531C7.35645 14.9199 7.21901 14.9215 7.11876 14.8577L2.47442 11.915L2.42111 11.8847C2.064 11.702 1.65014 11.6554 1.25613 11.7529L1.24599 11.7555C0.83805 11.8636 0.501407 12.1066 0.298243 12.44C0.0420385 12.8597 -0.0529088 13.5619 0.952208 14.5242C2.47789 15.9835 4.07484 17.3296 5.4896 18.5219C6.54152 19.4088 7.53517 20.2463 8.30419 20.9702C8.79595 21.4335 9.90572 22.6961 10.5099 23.3609L22.0879 20.4291L22.0879 20.4292Z" fill="#F0CAB5"/>
</svg>
